# xmcd
#
# Track frame offsets:
#	150
#	14810
#	32153
#	45854
#	63620
#	80409
#	97436
#	112180
#	129053
#	142657
#	158149
#	175490
#	190493
#	210603
#	224448
#	241526
#	259708
#	272688
#	288591
#	300657
#	314804
#	326782
#
# Disc length: 4486 seconds
#
# Revision: 1
# Processed by: cddbd v1.5.2PL0 Copyright (c) Steve Scherf et al.
# Submitted via: audiograbber 1.83.01
#
DISCID=4e118416
DTITLE=Glenn Erickson - Diamondback Records Compilation 7
DYEAR=2013
DGENRE=Country
TTITLE0=Amanda -B. Jeff Stone
TTITLE1=Cool Water -Marcella Tambouris
TTITLE2=Unspoken Words -Mitch Snow
TTITLE3=Desperado Wind -Pecos Red
TTITLE4=Christma Rose -Juli Maners
TTITLE5=Honky Tonking All Night Long -Noel Parlane
TTITLE6=Door Of Love -Fraser and Myrna
TTITLE7=On My Way To Amarillo -John Barbour
TTITLE8=Telling Him -Patricia Welch
TTITLE9=Thanking The Fifth -Chris Anderson
TTITLE10=Life Is Short -Ann Pascoe
TTITLE11=Like A Snowflake -Phillip Clarkson 
TTITLE12=The Stry Of Christmas -Michael DeBills
TTITLE13=No Good Way To Say Goodbye -Roger Ratliff
TTITLE14=Live Those Dayes Again -Brian Glenn 
TTITLE15=One By One -Walter Walsh
TTITLE16=Long Gone John -Glenn Erickson
TTITLE17=Merry Christmas, Santa -Terry Gorka
TTITLE18=He Stopped Loving Her Today -Ray Tombs
TTITLE19=Santa´s Got A Brand New Sleigh -William Ray
TTITLE20=Two Miles North Of Jackson -Johnny Dollar
TTITLE21=Tree In The Meadow -Glenn Erickson
EXTD=
EXTT0=
EXTT1=
EXTT2=
EXTT3=
EXTT4=
EXTT5=
EXTT6=
EXTT7=
EXTT8=
EXTT9=
EXTT10=
EXTT11=
EXTT12=
EXTT13=
EXTT14=
EXTT15=
EXTT16=
EXTT17=
EXTT18=
EXTT19=
EXTT20=
EXTT21=
PLAYORDER=
